HIERARCHY
ROOT Hips
{
    OFFSET 0.000000 0.000000 0.000000
    CHANNELS 6 Xposition Yposition Zposition Zrotation Yrotation Xrotation
    JOINT Chest
    {
        OFFSET 0.000000 1.634758 -0.000000
        CHANNELS 3 Zrotation Yrotation Xrotation
        JOINT Chest2
        {
            OFFSET 0.000000 2.197341 0.000000
            CHANNELS 3 Zrotation Yrotation Xrotation
            JOINT Neck
            {
                OFFSET 0.000000 0.961544 0.000000
                CHANNELS 3 Zrotation Yrotation Xrotation
                JOINT Head
                {
                    OFFSET 0.000000 0.632542 -0.032565
                    CHANNELS 3 Zrotation Yrotation Xrotation
                    End Site
                    {
                        OFFSET -0.000001 0.439502 2.922845
                    }
                }
            }
            JOINT LeftCollar
            {
                OFFSET 0.167536 0.778237 -0.168280
                CHANNELS 3 Zrotation Yrotation Xrotation
                JOINT LeftShoulder
                {
                    OFFSET 0.831514 -0.002900 0.006458
                    CHANNELS 3 Zrotation Yrotation Xrotation
                    JOINT LeftElbow
                    {
                        OFFSET 2.272872 -0.026639 0.059314
                        CHANNELS 3 Zrotation Yrotation Xrotation
                        JOINT LeftWrist
                        {
                            OFFSET 2.081982 -0.024402 0.054333
                            CHANNELS 3 Zrotation Yrotation Xrotation
                            JOINT LeftHandThumb1
                            {
                                OFFSET 0.218903 -0.128645 0.283837
                                CHANNELS 3 Zrotation Yrotation Xrotation
                                JOINT LeftHandThumb2
                                {
                                    OFFSET 0.137157 -0.025101 0.077902
                                    CHANNELS 3 Zrotation Yrotation Xrotation
                                    JOINT LeftHandThumb3
                                    {
                                        OFFSET 0.165861 -0.067014 0.039226
                                        CHANNELS 3 Zrotation Yrotation Xrotation
                                        End Site
                                        {
                                            OFFSET 0.241157 -0.045065 0.107930
                                        }
                                    }
                                }
                            }
                            JOINT LeftHandFore1
                            {
                                OFFSET 0.767340 -0.016076 0.196678
                                CHANNELS 3 Zrotation Yrotation Xrotation
                                JOINT LeftHandFore2
                                {
                                    OFFSET 0.215173 -0.024035 0.010864
                                    CHANNELS 3 Zrotation Yrotation Xrotation
                                    JOINT LeftHandFore3
                                    {
                                        OFFSET 0.127998 -0.018363 0.006493
                                        CHANNELS 3 Zrotation Yrotation Xrotation
                                        End Site
                                        {
                                            OFFSET 0.191872 -0.022849 0.005461
                                        }
                                    }
                                }
                            }
                            JOINT LeftHandMiddle1
                            {
                                OFFSET 0.709887 -0.008320 0.018526
                                CHANNELS 3 Zrotation Yrotation Xrotation
                                JOINT LeftHandMiddle2
                                {
                                    OFFSET 0.243305 -0.028680 0.006624
                                    CHANNELS 3 Zrotation Yrotation Xrotation
                                    JOINT LeftHandMiddle3
                                    {
                                        OFFSET 0.145223 -0.016669 0.003951
                                        CHANNELS 3 Zrotation Yrotation Xrotation
                                        End Site
                                        {
                                            OFFSET 0.233621 -0.031666 0.006995
                                        }
                                    }
                                }
                            }
                            JOINT LeftHandRing1
                            {
                                OFFSET 0.743817 -0.005823 -0.153668
                                CHANNELS 3 Zrotation Yrotation Xrotation
                                JOINT LeftHandRing2
                                {
                                    OFFSET 0.349394 -0.050632 -0.009675
                                    CHANNELS 3 Zrotation Yrotation Xrotation
                                    JOINT LeftHandRing3
                                    {
                                        OFFSET 0.134332 -0.023631 0.001421
                                        CHANNELS 3 Zrotation Yrotation Xrotation
                                        End Site
                                        {
                                            OFFSET 0.116893 -0.027460 0.001278
                                        }
                                    }
                                }
                            }
                            JOINT LeftHandLittle1
                            {
                                OFFSET 0.689408 -0.053302 -0.308304
                                CHANNELS 3 Zrotation Yrotation Xrotation
                                JOINT LeftHandLittle2
                                {
                                    OFFSET 0.193251 -0.018757 -0.018874
                                    CHANNELS 3 Zrotation Yrotation Xrotation
                                    JOINT LeftHandLittle3
                                    {
                                        OFFSET 0.116994 -0.025997 -0.011519
                                        CHANNELS 3 Zrotation Yrotation Xrotation
                                        End Site
                                        {
                                            OFFSET 0.189726 -0.012367 -0.011818
                                        }
                                    }
                                }
                            }
                        }
                    }
                }
            }
            JOINT RightCollar
            {
                OFFSET -0.167536 0.778237 -0.168280
                CHANNELS 3 Zrotation Yrotation Xrotation
                JOINT RightShoulder
                {
                    OFFSET -0.831514 -0.002900 0.006457
                    CHANNELS 3 Zrotation Yrotation Xrotation
                    JOINT RightElbow
                    {
                        OFFSET -2.272872 -0.026639 0.059313
                        CHANNELS 3 Zrotation Yrotation Xrotation
                        JOINT RightWrist
                        {
                            OFFSET -2.081982 -0.024402 0.054331
                            CHANNELS 3 Zrotation Yrotation Xrotation
                            JOINT RightHandThumb1
                            {
                                OFFSET -0.218911 -0.128571 0.283837
                                CHANNELS 3 Zrotation Yrotation Xrotation
                                JOINT RightHandThumb2
                                {
                                    OFFSET -0.137157 -0.025101 0.077902
                                    CHANNELS 3 Zrotation Yrotation Xrotation
                                    JOINT RightHandThumb3
                                    {
                                        OFFSET -0.165861 -0.067014 0.039226
                                        CHANNELS 3 Zrotation Yrotation Xrotation
                                        End Site
                                        {
                                            OFFSET -0.229436 -0.065997 0.121819
                                        }
                                    }
                                }
                            }
                            JOINT RightHandFore1
                            {
                                OFFSET -0.767344 -0.015991 0.196679
                                CHANNELS 3 Zrotation Yrotation Xrotation
                                JOINT RightHandFore2
                                {
                                    OFFSET -0.215182 -0.023988 0.010864
                                    CHANNELS 3 Zrotation Yrotation Xrotation
                                    JOINT RightHandFore3
                                    {
                                        OFFSET -0.127999 -0.018333 0.006493
                                        CHANNELS 3 Zrotation Yrotation Xrotation
                                        End Site
                                        {
                                            OFFSET -0.191454 -0.022769 0.013914
                                        }
                                    }
                                }
                            }
                            JOINT RightHandMiddle1
                            {
                                OFFSET -0.709887 -0.008302 0.018525
                                CHANNELS 3 Zrotation Yrotation Xrotation
                                JOINT RightHandMiddle2
                                {
                                    OFFSET -0.243299 -0.028704 0.006624
                                    CHANNELS 3 Zrotation Yrotation Xrotation
                                    JOINT RightHandMiddle3
                                    {
                                        OFFSET -0.145226 -0.016685 0.003951
                                        CHANNELS 3 Zrotation Yrotation Xrotation
                                        End Site
                                        {
                                            OFFSET -0.233653 -0.031672 0.005780
                                        }
                                    }
                                }
                            }
                            JOINT RightHandRing1
                            {
                                OFFSET -0.743819 -0.005785 -0.153669
                                CHANNELS 3 Zrotation Yrotation Xrotation
                                JOINT RightHandRing2
                                {
                                    OFFSET -0.349398 -0.050607 -0.009675
                                    CHANNELS 3 Zrotation Yrotation Xrotation
                                    JOINT RightHandRing3
                                    {
                                        OFFSET -0.134041 -0.023657 -0.008853
                                        CHANNELS 3 Zrotation Yrotation Xrotation
                                        End Site
                                        {
                                            OFFSET -0.116640 -0.027483 -0.007747
                                        }
                                    }
                                }
                            }
                            JOINT RightHandLittle1
                            {
                                OFFSET -0.689403 -0.053298 -0.308303
                                CHANNELS 3 Zrotation Yrotation Xrotation
                                JOINT RightHandLittle2
                                {
                                    OFFSET -0.193254 -0.018752 -0.018875
                                    CHANNELS 3 Zrotation Yrotation Xrotation
                                    JOINT RightHandLittle3
                                    {
                                        OFFSET -0.116992 -0.025993 -0.011520
                                        CHANNELS 3 Zrotation Yrotation Xrotation
                                        End Site
                                        {
                                            OFFSET -0.188440 -0.012318 -0.025042
                                        }
                                    }
                                }
                            }
                        }
                    }
                }
            }
        }
    }
    JOINT LeftHip
    {
        OFFSET 0.685143 0.673822 -0.044491
        CHANNELS 3 Zrotation Yrotation Xrotation
        JOINT LeftKnee
        {
            OFFSET 0.085364 -3.750208 0.017676
            CHANNELS 3 Zrotation Yrotation Xrotation
            JOINT LeftAnkle
            {
                OFFSET 0.094583 -4.155206 0.019585
                CHANNELS 3 Zrotation Yrotation Xrotation
                JOINT LeftToe
                {
                    OFFSET -0.000000 -0.395925 0.621478
                    CHANNELS 3 Zrotation Yrotation Xrotation
                    End Site
                    {
                        OFFSET -0.000000 -0.077878 0.321152
                    }
                }
            }
        }
    }
    JOINT RightHip
    {
        OFFSET -0.685143 0.673822 -0.044492
        CHANNELS 3 Zrotation Yrotation Xrotation
        JOINT RightKnee
        {
            OFFSET -0.085364 -3.750208 0.017677
            CHANNELS 3 Zrotation Yrotation Xrotation
            JOINT RightAnkle
            {
                OFFSET -0.094583 -4.155206 0.019585
                CHANNELS 3 Zrotation Yrotation Xrotation
                JOINT RightToe
                {
                    OFFSET -0.000000 -0.395925 0.621478
                    CHANNELS 3 Zrotation Yrotation Xrotation
                    End Site
                    {
                        OFFSET -0.000000 -0.077878 0.321152
                    }
                }
            }
        }
    }
}
MOTION
Frames: 4
Frame Time: 0.033333
-0.015740 8.370492 -0.474365 180.000000 -0.000011 180.000000 -0.000002 0.000000 -3.571787 -0.000002 -0.000000 -3.645255 0.000004 -0.000003 8.020884 0.000007 -0.000010 17.465555 -13.732497 3.290518 0.011495 -54.677769 12.288999 -2.190541 0.001082 -3.567381 -0.041851 -7.553564 -3.220914 7.714766 -0.000000 0.000001 -0.000002 -0.000002 -0.000002 0.000002 0.000004 0.000001 -0.000003 0.000001 -0.000000 0.000000 -0.000002 0.000000 0.000000 0.000001 0.000000 -0.000000 0.000001 0.000000 0.000000 -0.000000 -0.000000 0.000000 0.000001 0.000000 0.000000 -0.000001 0.000000 0.000000 -0.000000 0.000000 0.000000 -0.000000 0.000000 0.000000 0.000001 0.000000 0.000000 0.000001 -0.000000 0.000000 -0.000000 0.000000 -0.000000 -4.150985 7.185760 -0.025194 67.209183 64.563263 3.593431 -177.898224 62.149620 -178.740616 11.712196 5.500238 -11.488339 -0.000001 -0.000003 0.000001 0.000009 -0.000002 0.000001 0.000001 -0.000003 -0.000003 0.000003 -0.000000 -0.000001 -0.000003 -0.000002 -0.000001 0.000001 -0.000002 0.000000 0.000002 -0.000002 0.000002 -0.000001 0.000002 -0.000001 -0.000000 -0.000002 -0.000001 0.000001 -0.000002 -0.000001 0.000003 -0.000002 0.000002 0.000000 -0.000002 -0.000002 0.000003 -0.000003 0.000003 -0.000005 0.000002 0.000001 0.000000 -0.000000 0.000001 -0.828503 -0.104165 -2.863337 0.027870 0.268152 11.865156 1.634915 2.183563 -14.084726 0.003767 0.016601 -0.844710 0.828502 0.104139 -2.862131 -0.027827 -0.267998 11.858168 -1.635352 -2.183605 -14.076512 -0.003796 -0.016734 -0.851310
-0.015740 8.370489 -0.474365 180.000000 -0.000011 180.000000 -0.000050 -0.000015 -3.571578 -0.000051 0.000006 -3.645043 -0.000869 0.000073 8.020687 -0.000001 0.000155 17.465939 -13.734355 3.290844 0.011498 -54.723022 12.664284 -2.193666 0.001661 -4.345758 -0.051013 -7.555141 -3.219448 7.652344 -0.000005 -0.000006 -0.000001 -0.000002 -0.000004 0.000005 0.000001 0.000001 -0.000005 -0.081324 -0.002488 -0.000404 0.013336 0.000454 -0.000202 -0.081259 -0.002970 0.002624 -0.271033 -0.007824 0.005574 -0.388412 -0.013425 0.007413 -0.478740 -0.016771 0.008992 -0.522776 -0.008147 0.040326 -0.732087 -0.022465 -0.010081 -0.767964 -0.026690 0.018525 -0.724375 0.011663 0.102093 -0.922597 0.027234 0.043336 -2.437654 0.071957 -0.070887 -4.155332 7.175382 -0.025158 67.059586 64.608307 3.505018 -177.900574 62.099609 -178.743286 11.712211 5.500639 -11.488259 0.000003 0.000002 -0.000008 0.000005 -0.000000 0.000003 0.000001 -0.000005 0.000000 0.426724 0.014372 -0.000535 0.824617 -0.023168 0.061015 0.799241 -0.019311 0.043702 0.666771 0.019341 0.016103 0.640052 -0.014251 0.020397 0.519974 -0.011582 0.018228 0.665269 0.010042 0.051306 0.813217 -0.019025 -0.033388 0.532027 -0.016348 -0.040749 0.765916 -0.002425 0.109859 0.560461 -0.003748 -0.121746 0.643863 -0.020342 -0.114080 -0.828498 -0.104137 -2.863431 0.027871 0.268156 11.865335 1.634770 2.183496 -14.084844 0.003767 0.016598 -0.844778 0.828503 0.104150 -2.862365 -0.027829 -0.268007 11.858584 -1.635397 -2.183598 -14.076727 -0.003796 -0.016734 -0.851305
-0.015740 8.370481 -0.474365 180.000000 -0.000011 180.000000 -0.000192 -0.000061 -3.570957 -0.000198 0.000024 -3.644415 -0.003464 0.000299 8.020123 -0.000027 0.000644 17.467024 -13.739549 3.291755 0.011512 -54.843105 13.483751 -2.203923 0.003371 -6.040603 -0.071031 -7.559608 -3.215231 7.476204 -0.000004 -0.000009 -0.000015 -0.000003 -0.000002 0.000002 0.000002 0.000002 -0.000007 -0.309781 -0.009444 -0.001548 0.049899 0.001698 -0.000755 -0.309555 -0.011296 0.010074 -1.032494 -0.029620 0.021263 -1.479685 -0.050780 0.028434 -1.823791 -0.063336 0.034506 -1.991546 -0.030078 0.153651 -2.788818 -0.085613 -0.038143 -2.925604 -0.099902 0.071189 -2.759519 0.045771 0.388877 -3.514666 0.097692 0.157914 -9.124266 0.217676 -0.265284 -4.167850 7.145843 -0.025047 66.623970 64.736946 3.245224 -177.907211 61.957664 -178.750809 11.712234 5.501791 -11.488037 0.000008 0.000012 -0.000009 0.000012 -0.000005 0.000003 -0.000005 -0.000000 -0.000003 1.596830 0.053339 -0.001989 3.085469 -0.089708 0.228700 2.990558 -0.075112 0.163906 2.495071 0.071323 0.060246 2.394985 -0.054300 0.076533 1.945696 -0.043986 0.068363 2.489439 0.036540 0.191981 3.043079 -0.069565 -0.124898 1.990881 -0.059520 -0.152608 2.866104 -0.010510 0.411075 2.097328 -0.011335 -0.455716 2.409501 -0.072567 -0.427023 -0.828484 -0.104065 -2.863650 0.027873 0.268166 11.865756 1.634337 2.183310 -14.085145 0.003765 0.016594 -0.844854 0.828506 0.104168 -2.862787 -0.027832 -0.268023 11.859303 -1.635545 -2.183566 -14.077118 -0.003797 -0.016737 -0.851258
-0.015740 8.370469 -0.474365 180.000000 -0.000011 180.000000 -0.000428 -0.000136 -3.569928 -0.000441 0.000054 -3.643368 -0.007747 0.000671 8.019183 -0.000068 0.001452 17.468761 -13.747744 3.293177 0.011527 -55.020325 14.441636 -2.221865 0.006100 -8.013588 -0.094489 -7.566566 -3.208551 7.203013 0.000001 -0.000011 -0.000014 -0.000005 0.000000 0.000002 0.000004 -0.000000 -0.000004 -0.662149 -0.020129 -0.003315 0.104534 0.003560 -0.001582 -0.661671 -0.024067 0.021726 -2.206974 -0.062727 0.045530 -3.162893 -0.107335 0.061297 -3.898456 -0.133538 0.074432 -4.257008 -0.061428 0.328462 -5.960826 -0.184368 -0.080752 -6.253585 -0.208817 0.153865 -5.898510 0.102260 0.830968 -7.513211 0.187398 0.321199 -19.120657 0.295522 -0.540160 -4.187590 7.099520 -0.024880 65.917152 64.939835 2.817028 -177.917435 61.736702 -178.762375 11.712262 5.503611 -11.487679 -0.000003 0.000003 -0.000012 0.000006 -0.000002 -0.000001 -0.000006 0.000003 -0.000002 3.345161 0.110405 -0.004174 6.462871 -0.197441 0.480017 6.264162 -0.166279 0.344228 5.226903 0.146159 0.126092 5.016902 -0.116808 0.160931 4.075780 -0.094166 0.143626 5.215067 0.073295 0.402072 6.374954 -0.140605 -0.261367 4.170821 -0.119518 -0.320000 6.004173 -0.026528 0.860933 4.393831 -0.015303 -0.954909 5.048145 -0.140815 -0.894724 -0.828460 -0.103948 -2.864087 0.027877 0.268184 11.866591 1.633615 2.183002 -14.085711 0.003764 0.016585 -0.844930 0.828511 0.104189 -2.863239 -0.027836 -0.268039 11.860020 -1.635801 -2.183510 -14.077541 -0.003797 -0.016741 -0.851302
